<svg width="22" height="22" viewBox="0 0 22 22" fill="none" xmlns="http://www.w3.org/2000/svg">
<rect width="22" height="22" rx="6" fill="white"/>
<path d="M10.0771 12.5059C10.0771 12.9844 9.99512 13.4173 9.83105 13.8047C9.66699 14.1921 9.43229 14.5247 9.12695 14.8027C8.82617 15.0807 8.46159 15.2949 8.0332 15.4453C7.60482 15.5957 7.12858 15.6709 6.60449 15.6709C5.69303 15.6709 5.01628 15.5342 4.57422 15.2607V14.0713C5.23958 14.4997 5.9209 14.7139 6.61816 14.7139C6.97363 14.7139 7.29264 14.6615 7.5752 14.5566C7.8623 14.4518 8.10612 14.306 8.30664 14.1191C8.50716 13.9323 8.65983 13.7067 8.76465 13.4424C8.87402 13.1781 8.92871 12.8887 8.92871 12.5742C8.92871 11.9362 8.71452 11.4372 8.28613 11.0771C7.85775 10.7126 7.23568 10.5303 6.41992 10.5303C6.28776 10.5303 6.14876 10.5326 6.00293 10.5371C5.8571 10.5417 5.71126 10.5485 5.56543 10.5576C5.4196 10.5622 5.27604 10.569 5.13477 10.5781C4.99805 10.5872 4.87272 10.5986 4.75879 10.6123L5.09375 5.69727H9.62598V6.70898H6.06445L5.86621 9.58691C6.01204 9.5778 6.16699 9.57096 6.33105 9.56641C6.49512 9.55729 6.64095 9.55273 6.76855 9.55273C7.28809 9.55273 7.75293 9.62109 8.16309 9.75781C8.57324 9.89453 8.9196 10.0905 9.20215 10.3457C9.48926 10.5964 9.70573 10.9062 9.85156 11.2754C10.002 11.64 10.0771 12.0501 10.0771 12.5059ZM17.9863 12.3896C17.9863 12.8682 17.9089 13.3079 17.7539 13.709C17.599 14.11 17.3848 14.4564 17.1113 14.748C16.8379 15.0397 16.512 15.2676 16.1338 15.4316C15.7555 15.5911 15.3454 15.6709 14.9033 15.6709C14.4111 15.6709 13.9691 15.5684 13.5771 15.3633C13.1898 15.1582 12.8594 14.8643 12.5859 14.4814C12.3171 14.0941 12.112 13.6224 11.9707 13.0664C11.8294 12.5104 11.7588 11.8838 11.7588 11.1865C11.7588 10.3343 11.8522 9.56185 12.0391 8.86914C12.2305 8.17188 12.4993 7.57715 12.8457 7.08496C13.1966 6.58822 13.6182 6.2054 14.1104 5.93652C14.6025 5.66764 15.1517 5.5332 15.7578 5.5332C16.4323 5.5332 16.9746 5.62663 17.3848 5.81348V6.87305C16.8789 6.61328 16.3457 6.4834 15.7852 6.4834C15.3477 6.4834 14.9535 6.58138 14.6025 6.77734C14.2516 6.97331 13.9508 7.2513 13.7002 7.61133C13.4495 7.9668 13.2559 8.39746 13.1191 8.90332C12.987 9.40918 12.9209 9.97201 12.9209 10.5918H12.9482C13.3994 9.77604 14.1445 9.36816 15.1836 9.36816C15.612 9.36816 15.9971 9.44108 16.3389 9.58691C16.6852 9.73275 16.9792 9.9401 17.2207 10.209C17.4668 10.4733 17.6559 10.79 17.7881 11.1592C17.9202 11.5283 17.9863 11.9385 17.9863 12.3896ZM16.8379 12.5332C16.8379 12.1914 16.7946 11.8838 16.708 11.6104C16.6214 11.3369 16.4961 11.1045 16.332 10.9131C16.1725 10.7217 15.9743 10.5758 15.7373 10.4756C15.5003 10.3708 15.2314 10.3184 14.9307 10.3184C14.6527 10.3184 14.3952 10.3708 14.1582 10.4756C13.9212 10.5804 13.7161 10.724 13.543 10.9062C13.3698 11.084 13.2331 11.2936 13.1328 11.5352C13.0371 11.7721 12.9893 12.0251 12.9893 12.2939C12.9893 12.6312 13.0371 12.9479 13.1328 13.2441C13.2285 13.5358 13.363 13.791 13.5361 14.0098C13.7093 14.2285 13.9144 14.4017 14.1514 14.5293C14.3929 14.6523 14.6595 14.7139 14.9512 14.7139C15.2337 14.7139 15.4912 14.6615 15.7236 14.5566C15.9561 14.4473 16.1543 14.2969 16.3184 14.1055C16.4824 13.9141 16.61 13.6862 16.7012 13.4219C16.7923 13.153 16.8379 12.8568 16.8379 12.5332Z" fill="black"/>
</svg>
